<?xml version="1.0" encoding="UTF-8"?>
<svg xmlns="http://www.w3.org/2000/svg" version="1.1" width="300" height="300" viewBox="0 0 300 300"><rect x="0" y="0" width="300" height="300" fill="#ffffff"/><g transform="scale(9.091)"><g transform="translate(0,0)"><path fill-rule="evenodd" d="M10 0L10 2L11 2L11 0ZM12 0L12 1L13 1L13 2L12 2L12 4L15 4L15 3L16 3L16 4L19 4L19 5L17 5L17 6L16 6L16 5L11 5L11 6L10 6L10 4L11 4L11 3L8 3L8 4L9 4L9 5L8 5L8 7L9 7L9 8L6 8L6 9L8 9L8 11L7 11L7 10L6 10L6 11L7 11L7 12L5 12L5 13L1 13L1 12L4 12L4 11L5 11L5 10L4 10L4 9L5 9L5 8L0 8L0 9L2 9L2 10L4 10L4 11L1 11L1 12L0 12L0 16L1 16L1 17L3 17L3 18L5 18L5 16L6 16L6 17L8 17L8 16L9 16L9 18L6 18L6 19L5 19L5 20L3 20L3 19L0 19L0 25L1 25L1 22L2 22L2 25L4 25L4 22L5 22L5 23L7 23L7 22L9 22L9 21L11 21L11 20L9 20L9 18L11 18L11 17L12 17L12 18L13 18L13 19L12 19L12 21L14 21L14 24L12 24L12 23L13 23L13 22L11 22L11 25L10 25L10 24L6 24L6 25L8 25L8 27L9 27L9 28L8 28L8 33L11 33L11 32L10 32L10 31L11 31L11 30L13 30L13 31L14 31L14 32L12 32L12 33L16 33L16 31L17 31L17 30L15 30L15 29L19 29L19 30L18 30L18 32L17 32L17 33L18 33L18 32L19 32L19 33L20 33L20 32L22 32L22 33L25 33L25 32L26 32L26 33L27 33L27 32L28 32L28 31L27 31L27 30L29 30L29 33L30 33L30 32L31 32L31 33L32 33L32 32L31 32L31 31L32 31L32 30L31 30L31 31L30 31L30 29L29 29L29 28L31 28L31 29L32 29L32 26L33 26L33 24L32 24L32 26L31 26L31 25L30 25L30 26L29 26L29 24L31 24L31 23L32 23L32 22L33 22L33 21L32 21L32 20L31 20L31 19L32 19L32 18L33 18L33 17L32 17L32 16L31 16L31 15L32 15L32 14L33 14L33 13L31 13L31 15L30 15L30 16L31 16L31 19L30 19L30 17L29 17L29 16L27 16L27 15L26 15L26 16L24 16L24 15L25 15L25 14L27 14L27 13L30 13L30 12L31 12L31 11L32 11L32 10L33 10L33 9L32 9L32 8L31 8L31 9L30 9L30 8L29 8L29 9L30 9L30 10L28 10L28 11L30 11L30 12L27 12L27 13L26 13L26 10L27 10L27 9L28 9L28 8L27 8L27 9L26 9L26 8L24 8L24 9L23 9L23 6L22 6L22 7L21 7L21 5L25 5L25 3L24 3L24 2L22 2L22 0L18 0L18 1L15 1L15 0L14 0L14 1L13 1L13 0ZM23 0L23 1L24 1L24 0ZM8 1L8 2L9 2L9 1ZM14 1L14 2L13 2L13 3L15 3L15 1ZM18 1L18 2L16 2L16 3L18 3L18 2L19 2L19 4L22 4L22 3L20 3L20 2L21 2L21 1ZM19 5L19 8L18 8L18 6L17 6L17 8L18 8L18 9L13 9L13 8L16 8L16 6L15 6L15 7L14 7L14 6L13 6L13 7L12 7L12 6L11 6L11 7L12 7L12 9L11 9L11 8L10 8L10 9L9 9L9 12L7 12L7 13L5 13L5 14L3 14L3 16L4 16L4 15L5 15L5 14L8 14L8 13L9 13L9 12L11 12L11 13L10 13L10 14L13 14L13 15L12 15L12 17L13 17L13 18L14 18L14 17L15 17L15 18L17 18L17 19L16 19L16 20L14 20L14 19L13 19L13 20L14 20L14 21L15 21L15 22L18 22L18 21L22 21L22 20L20 20L20 18L21 18L21 17L22 17L22 16L21 16L21 15L22 15L22 14L23 14L23 15L24 15L24 14L25 14L25 11L24 11L24 10L25 10L25 9L24 9L24 10L23 10L23 9L22 9L22 8L21 8L21 7L20 7L20 5ZM9 6L9 7L10 7L10 6ZM24 6L24 7L25 7L25 6ZM20 8L20 9L18 9L18 10L14 10L14 11L18 11L18 12L15 12L15 13L14 13L14 12L13 12L13 11L12 11L12 13L13 13L13 14L15 14L15 16L16 16L16 17L19 17L19 18L18 18L18 19L19 19L19 18L20 18L20 17L21 17L21 16L20 16L20 15L21 15L21 14L22 14L22 13L23 13L23 14L24 14L24 13L23 13L23 12L24 12L24 11L23 11L23 10L22 10L22 9L21 9L21 8ZM10 9L10 11L11 11L11 9ZM12 9L12 10L13 10L13 9ZM20 9L20 10L18 10L18 11L19 11L19 12L18 12L18 13L15 13L15 14L17 14L17 15L16 15L16 16L19 16L19 17L20 17L20 16L19 16L19 15L20 15L20 14L21 14L21 13L22 13L22 12L21 12L21 9ZM30 10L30 11L31 11L31 10ZM19 12L19 13L18 13L18 15L19 15L19 14L20 14L20 13L21 13L21 12ZM6 15L6 16L7 16L7 15ZM9 15L9 16L10 16L10 15ZM13 16L13 17L14 17L14 16ZM26 16L26 17L25 17L25 18L23 18L23 20L25 20L25 18L26 18L26 17L27 17L27 19L28 19L28 20L26 20L26 21L27 21L27 22L25 22L25 21L24 21L24 22L21 22L21 23L20 23L20 22L19 22L19 23L20 23L20 24L19 24L19 25L16 25L16 24L18 24L18 23L16 23L16 24L14 24L14 25L15 25L15 26L12 26L12 25L11 25L11 27L10 27L10 25L9 25L9 27L10 27L10 28L9 28L9 29L10 29L10 30L9 30L9 31L10 31L10 30L11 30L11 28L12 28L12 29L13 29L13 30L14 30L14 29L15 29L15 28L14 28L14 27L15 27L15 26L16 26L16 28L18 28L18 26L19 26L19 27L20 27L20 26L21 26L21 25L22 25L22 27L23 27L23 26L24 26L24 25L22 25L22 24L23 24L23 23L24 23L24 24L25 24L25 23L29 23L29 21L30 21L30 23L31 23L31 20L30 20L30 19L28 19L28 18L29 18L29 17L27 17L27 16ZM6 19L6 20L5 20L5 22L7 22L7 21L6 21L6 20L8 20L8 21L9 21L9 20L8 20L8 19ZM1 20L1 21L2 21L2 22L3 22L3 21L2 21L2 20ZM16 20L16 21L18 21L18 20ZM28 20L28 21L29 21L29 20ZM21 23L21 24L20 24L20 25L19 25L19 26L20 26L20 25L21 25L21 24L22 24L22 23ZM25 25L25 28L28 28L28 25ZM26 26L26 27L27 27L27 26ZM30 26L30 27L31 27L31 26ZM12 27L12 28L13 28L13 29L14 29L14 28L13 28L13 27ZM20 28L20 30L19 30L19 31L20 31L20 30L21 30L21 29L22 29L22 30L23 30L23 31L22 31L22 32L25 32L25 31L26 31L26 30L27 30L27 29L24 29L24 28L23 28L23 29L22 29L22 28ZM23 29L23 30L24 30L24 31L25 31L25 30L24 30L24 29ZM0 0L0 7L7 7L7 0ZM1 1L1 6L6 6L6 1ZM2 2L2 5L5 5L5 2ZM26 0L26 7L33 7L33 0ZM27 1L27 6L32 6L32 1ZM28 2L28 5L31 5L31 2ZM0 26L0 33L7 33L7 26ZM1 27L1 32L6 32L6 27ZM2 28L2 31L5 31L5 28Z" fill="#000000"/></g></g></svg>
