<?xml version="1.0" encoding="UTF-8"?>
<svg xmlns="http://www.w3.org/2000/svg" version="1.1" width="300" height="300" viewBox="0 0 300 300"><rect x="0" y="0" width="300" height="300" fill="#ffffff"/><g transform="scale(9.091)"><g transform="translate(0,0)"><path fill-rule="evenodd" d="M9 0L9 1L8 1L8 3L9 3L9 4L8 4L8 8L6 8L6 9L4 9L4 8L3 8L3 9L4 9L4 10L2 10L2 8L0 8L0 10L1 10L1 11L0 11L0 12L2 12L2 13L0 13L0 15L1 15L1 14L3 14L3 16L4 16L4 15L5 15L5 16L6 16L6 17L8 17L8 19L7 19L7 18L6 18L6 19L7 19L7 20L5 20L5 19L4 19L4 20L3 20L3 19L2 19L2 16L1 16L1 17L0 17L0 19L2 19L2 20L3 20L3 22L4 22L4 24L3 24L3 23L2 23L2 21L1 21L1 22L0 22L0 23L1 23L1 24L0 24L0 25L1 25L1 24L2 24L2 25L4 25L4 24L6 24L6 25L8 25L8 27L9 27L9 29L8 29L8 30L9 30L9 31L8 31L8 33L15 33L15 32L16 32L16 31L17 31L17 32L18 32L18 33L20 33L20 32L21 32L21 33L22 33L22 32L24 32L24 33L25 33L25 32L26 32L26 33L29 33L29 31L30 31L30 30L31 30L31 31L33 31L33 28L32 28L32 29L29 29L29 26L30 26L30 25L29 25L29 24L30 24L30 22L31 22L31 21L32 21L32 23L31 23L31 24L33 24L33 21L32 21L32 20L31 20L31 21L30 21L30 18L31 18L31 19L33 19L33 18L31 18L31 17L29 17L29 16L30 16L30 14L31 14L31 16L32 16L32 17L33 17L33 16L32 16L32 14L33 14L33 9L32 9L32 8L30 8L30 9L29 9L29 8L26 8L26 12L25 12L25 4L23 4L23 3L22 3L22 5L24 5L24 7L23 7L23 6L22 6L22 7L21 7L21 3L20 3L20 2L16 2L16 1L17 1L17 0L15 0L15 1L13 1L13 0L12 0L12 1L11 1L11 2L9 2L9 1L10 1L10 0ZM18 0L18 1L20 1L20 0ZM22 0L22 1L21 1L21 2L25 2L25 1L24 1L24 0ZM13 2L13 3L12 3L12 4L9 4L9 5L10 5L10 6L9 6L9 7L10 7L10 8L8 8L8 10L7 10L7 9L6 9L6 10L5 10L5 11L2 11L2 12L3 12L3 13L5 13L5 12L7 12L7 13L6 13L6 14L7 14L7 15L6 15L6 16L9 16L9 15L8 15L8 14L7 14L7 13L8 13L8 12L9 12L9 14L10 14L10 13L12 13L12 12L13 12L13 11L14 11L14 10L15 10L15 11L16 11L16 10L17 10L17 12L14 12L14 13L13 13L13 15L16 15L16 13L17 13L17 12L18 12L18 10L20 10L20 11L22 11L22 10L23 10L23 11L24 11L24 9L23 9L23 7L22 7L22 10L21 10L21 9L20 9L20 8L16 8L16 9L14 9L14 10L13 10L13 8L15 8L15 7L16 7L16 6L15 6L15 3L14 3L14 2ZM16 3L16 4L17 4L17 5L18 5L18 6L17 6L17 7L18 7L18 6L19 6L19 7L20 7L20 6L19 6L19 5L20 5L20 4L19 4L19 3ZM13 4L13 6L12 6L12 5L11 5L11 6L10 6L10 7L11 7L11 6L12 6L12 8L13 8L13 6L14 6L14 7L15 7L15 6L14 6L14 4ZM10 8L10 10L9 10L9 11L11 11L11 10L12 10L12 9L11 9L11 8ZM17 9L17 10L18 10L18 9ZM27 9L27 10L29 10L29 9ZM30 9L30 11L27 11L27 14L25 14L25 15L27 15L27 17L26 17L26 16L25 16L25 17L24 17L24 18L21 18L21 17L19 17L19 18L18 18L18 17L17 17L17 16L12 16L12 14L11 14L11 15L10 15L10 16L12 16L12 17L11 17L11 18L10 18L10 17L9 17L9 18L10 18L10 20L11 20L11 19L12 19L12 20L15 20L15 21L14 21L14 22L13 22L13 23L14 23L14 22L15 22L15 23L16 23L16 22L17 22L17 21L18 21L18 20L15 20L15 19L16 19L16 17L17 17L17 19L19 19L19 22L20 22L20 24L19 24L19 23L17 23L17 24L19 24L19 25L20 25L20 26L19 26L19 28L18 28L18 29L16 29L16 28L17 28L17 27L18 27L18 26L17 26L17 25L16 25L16 24L15 24L15 26L14 26L14 25L12 25L12 27L11 27L11 24L9 24L9 22L11 22L11 21L9 21L9 22L8 22L8 21L6 21L6 22L5 22L5 23L6 23L6 24L8 24L8 25L9 25L9 26L10 26L10 27L11 27L11 29L12 29L12 30L10 30L10 32L14 32L14 30L15 30L15 31L16 31L16 30L18 30L18 32L19 32L19 31L24 31L24 30L23 30L23 29L24 29L24 26L23 26L23 29L22 29L22 30L20 30L20 26L21 26L21 27L22 27L22 26L21 26L21 21L20 21L20 18L21 18L21 19L22 19L22 21L23 21L23 22L22 22L22 25L23 25L23 23L25 23L25 24L27 24L27 23L25 23L25 22L26 22L26 21L27 21L27 22L28 22L28 23L29 23L29 22L30 22L30 21L29 21L29 20L28 20L28 21L27 21L27 20L26 20L26 21L25 21L25 22L24 22L24 20L23 20L23 19L25 19L25 17L26 17L26 19L27 19L27 18L28 18L28 19L29 19L29 17L28 17L28 16L29 16L29 15L27 15L27 14L28 14L28 13L29 13L29 12L30 12L30 13L32 13L32 12L31 12L31 11L32 11L32 9ZM6 10L6 11L7 11L7 10ZM19 12L19 13L20 13L20 14L17 14L17 15L18 15L18 16L19 16L19 15L21 15L21 12ZM22 12L22 13L23 13L23 14L22 14L22 15L23 15L23 16L24 16L24 15L23 15L23 14L24 14L24 13L25 13L25 12ZM4 17L4 18L5 18L5 17ZM13 17L13 19L14 19L14 18L15 18L15 17ZM8 19L8 20L9 20L9 19ZM4 20L4 21L5 21L5 20ZM6 22L6 23L8 23L8 22ZM25 25L25 28L28 28L28 25ZM32 25L32 26L31 26L31 27L32 27L32 26L33 26L33 25ZM26 26L26 27L27 27L27 26ZM13 27L13 28L14 28L14 29L15 29L15 27ZM12 30L12 31L13 31L13 30ZM25 30L25 31L27 31L27 30ZM31 32L31 33L32 33L32 32ZM0 0L0 7L7 7L7 0ZM1 1L1 6L6 6L6 1ZM2 2L2 5L5 5L5 2ZM26 0L26 7L33 7L33 0ZM27 1L27 6L32 6L32 1ZM28 2L28 5L31 5L31 2ZM0 26L0 33L7 33L7 26ZM1 27L1 32L6 32L6 27ZM2 28L2 31L5 31L5 28Z" fill="#000000"/></g></g></svg>
