<?xml version="1.0" encoding="UTF-8"?>
<svg xmlns="http://www.w3.org/2000/svg" version="1.1" width="300" height="300" viewBox="0 0 300 300"><rect x="0" y="0" width="300" height="300" fill="#ffffff"/><g transform="scale(9.091)"><g transform="translate(0,0)"><path fill-rule="evenodd" d="M9 0L9 1L8 1L8 2L9 2L9 3L8 3L8 4L10 4L10 7L11 7L11 4L12 4L12 5L13 5L13 6L12 6L12 9L16 9L16 10L15 10L15 11L14 11L14 10L11 10L11 11L10 11L10 9L11 9L11 8L6 8L6 9L7 9L7 10L6 10L6 11L4 11L4 10L5 10L5 8L0 8L0 10L3 10L3 11L4 11L4 12L2 12L2 14L1 14L1 13L0 13L0 14L1 14L1 15L2 15L2 16L1 16L1 17L2 17L2 18L0 18L0 20L1 20L1 21L0 21L0 25L1 25L1 22L2 22L2 23L3 23L3 24L4 24L4 25L5 25L5 24L4 24L4 23L7 23L7 24L6 24L6 25L8 25L8 27L9 27L9 26L10 26L10 27L11 27L11 28L13 28L13 29L11 29L11 30L10 30L10 28L8 28L8 33L10 33L10 32L9 32L9 31L11 31L11 30L12 30L12 32L11 32L11 33L12 33L12 32L13 32L13 33L14 33L14 32L15 32L15 33L19 33L19 32L20 32L20 33L21 33L21 32L22 32L22 33L25 33L25 32L23 32L23 31L24 31L24 29L25 29L25 31L27 31L27 32L26 32L26 33L27 33L27 32L28 32L28 33L29 33L29 31L27 31L27 30L31 30L31 31L30 31L30 32L31 32L31 33L32 33L32 32L31 32L31 31L32 31L32 30L31 30L31 29L30 29L30 28L31 28L31 27L32 27L32 26L33 26L33 24L32 24L32 26L31 26L31 25L29 25L29 24L31 24L31 23L32 23L32 22L33 22L33 21L32 21L32 20L31 20L31 19L32 19L32 18L33 18L33 17L32 17L32 16L31 16L31 15L32 15L32 14L33 14L33 13L31 13L31 15L30 15L30 13L29 13L29 11L25 11L25 12L24 12L24 11L23 11L23 10L24 10L24 9L25 9L25 10L27 10L27 9L28 9L28 8L27 8L27 9L26 9L26 8L23 8L23 5L25 5L25 3L24 3L24 2L25 2L25 1L24 1L24 0L21 0L21 1L22 1L22 2L21 2L21 3L19 3L19 4L18 4L18 3L17 3L17 4L16 4L16 2L19 2L19 1L20 1L20 0L19 0L19 1L15 1L15 0L14 0L14 1L11 1L11 2L10 2L10 0ZM14 1L14 2L12 2L12 4L13 4L13 5L14 5L14 4L15 4L15 5L16 5L16 6L15 6L15 7L16 7L16 6L17 6L17 8L16 8L16 9L17 9L17 8L18 8L18 6L17 6L17 5L18 5L18 4L17 4L17 5L16 5L16 4L15 4L15 3L14 3L14 2L15 2L15 1ZM23 1L23 2L22 2L22 3L21 3L21 4L20 4L20 5L19 5L19 7L20 7L20 8L19 8L19 9L18 9L18 10L16 10L16 11L17 11L17 12L18 12L18 13L13 13L13 14L12 14L12 13L11 13L11 12L10 12L10 13L11 13L11 15L12 15L12 16L10 16L10 15L8 15L8 13L6 13L6 12L7 12L7 11L6 11L6 12L4 12L4 13L3 13L3 14L2 14L2 15L3 15L3 16L2 16L2 17L3 17L3 16L9 16L9 17L10 17L10 18L9 18L9 19L8 19L8 17L4 17L4 19L3 19L3 18L2 18L2 19L1 19L1 20L5 20L5 21L4 21L4 22L3 22L3 23L4 23L4 22L5 22L5 21L6 21L6 22L7 22L7 23L8 23L8 24L9 24L9 23L10 23L10 22L11 22L11 25L13 25L13 26L11 26L11 27L13 27L13 28L18 28L18 29L13 29L13 32L14 32L14 30L16 30L16 32L18 32L18 31L17 31L17 30L18 30L18 29L22 29L22 28L21 28L21 27L22 27L22 26L23 26L23 25L24 25L24 24L23 24L23 25L22 25L22 24L20 24L20 23L21 23L21 22L19 22L19 21L18 21L18 22L17 22L17 23L16 23L16 24L19 24L19 25L13 25L13 24L14 24L14 23L15 23L15 22L16 22L16 21L17 21L17 20L18 20L18 19L16 19L16 21L15 21L15 18L18 18L18 17L19 17L19 16L18 16L18 15L20 15L20 14L21 14L21 13L22 13L22 15L25 15L25 14L26 14L26 17L24 17L24 16L23 16L23 17L24 17L24 18L21 18L21 17L22 17L22 16L20 16L20 18L19 18L19 19L20 19L20 18L21 18L21 19L24 19L24 20L25 20L25 19L24 19L24 18L26 18L26 19L27 19L27 20L26 20L26 21L27 21L27 22L26 22L26 24L27 24L27 23L28 23L28 24L29 24L29 23L30 23L30 22L29 22L29 21L31 21L31 20L29 20L29 21L27 21L27 20L28 20L28 18L29 18L29 17L30 17L30 19L31 19L31 16L30 16L30 15L29 15L29 13L27 13L27 12L26 12L26 13L24 13L24 14L23 14L23 13L22 13L22 12L21 12L21 11L22 11L22 10L23 10L23 8L21 8L21 7L22 7L22 6L21 6L21 7L20 7L20 5L21 5L21 4L22 4L22 5L23 5L23 4L22 4L22 3L23 3L23 2L24 2L24 1ZM10 3L10 4L11 4L11 3ZM13 3L13 4L14 4L14 3ZM8 5L8 7L9 7L9 5ZM13 6L13 8L14 8L14 6ZM24 6L24 7L25 7L25 6ZM29 8L29 9L30 9L30 8ZM31 8L31 10L33 10L33 9L32 9L32 8ZM3 9L3 10L4 10L4 9ZM8 9L8 10L9 10L9 9ZM19 9L19 10L18 10L18 12L19 12L19 13L18 13L18 14L20 14L20 13L21 13L21 12L19 12L19 10L21 10L21 9ZM0 11L0 12L1 12L1 11ZM12 11L12 12L14 12L14 11ZM30 11L30 12L31 12L31 11ZM26 13L26 14L27 14L27 15L28 15L28 14L27 14L27 13ZM5 14L5 15L7 15L7 14ZM15 14L15 15L14 15L14 16L13 16L13 17L11 17L11 18L13 18L13 17L14 17L14 18L15 18L15 17L14 17L14 16L16 16L16 17L18 17L18 16L16 16L16 15L17 15L17 14ZM28 16L28 17L29 17L29 16ZM26 17L26 18L27 18L27 17ZM5 18L5 20L6 20L6 21L7 21L7 22L8 22L8 23L9 23L9 22L8 22L8 19L7 19L7 18ZM6 19L6 20L7 20L7 19ZM9 19L9 20L10 20L10 21L11 21L11 22L12 22L12 24L13 24L13 22L12 22L12 21L14 21L14 22L15 22L15 21L14 21L14 20L13 20L13 19L12 19L12 21L11 21L11 19ZM20 20L20 21L22 21L22 22L23 22L23 23L25 23L25 22L23 22L23 21L22 21L22 20ZM18 22L18 23L19 23L19 22ZM28 22L28 23L29 23L29 22ZM19 25L19 26L18 26L18 27L19 27L19 26L20 26L20 27L21 27L21 26L22 26L22 25ZM25 25L25 28L28 28L28 25ZM13 26L13 27L14 27L14 26ZM15 26L15 27L16 27L16 26ZM26 26L26 27L27 27L27 26ZM23 28L23 29L24 29L24 28ZM32 28L32 29L33 29L33 28ZM26 29L26 30L27 30L27 29ZM19 30L19 31L20 31L20 32L21 32L21 30ZM0 0L0 7L7 7L7 0ZM1 1L1 6L6 6L6 1ZM2 2L2 5L5 5L5 2ZM26 0L26 7L33 7L33 0ZM27 1L27 6L32 6L32 1ZM28 2L28 5L31 5L31 2ZM0 26L0 33L7 33L7 26ZM1 27L1 32L6 32L6 27ZM2 28L2 31L5 31L5 28Z" fill="#000000"/></g></g></svg>
