<?xml version="1.0" encoding="UTF-8"?>
<svg xmlns="http://www.w3.org/2000/svg" version="1.1" width="300" height="300" viewBox="0 0 300 300"><rect x="0" y="0" width="300" height="300" fill="#ffffff"/><g transform="scale(9.091)"><g transform="translate(0,0)"><path fill-rule="evenodd" d="M10 0L10 2L11 2L11 0ZM12 0L12 1L13 1L13 0ZM16 0L16 1L15 1L15 2L14 2L14 3L13 3L13 2L12 2L12 4L14 4L14 5L11 5L11 6L10 6L10 4L11 4L11 3L8 3L8 4L9 4L9 5L8 5L8 7L9 7L9 8L6 8L6 9L10 9L10 11L11 11L11 9L12 9L12 10L13 10L13 11L12 11L12 13L14 13L14 15L15 15L15 16L13 16L13 17L12 17L12 15L13 15L13 14L9 14L9 13L11 13L11 12L9 12L9 11L7 11L7 10L6 10L6 11L4 11L4 9L5 9L5 8L0 8L0 10L1 10L1 11L0 11L0 18L2 18L2 19L0 19L0 20L1 20L1 21L0 21L0 25L1 25L1 22L2 22L2 19L3 19L3 21L4 21L4 17L5 17L5 18L6 18L6 19L5 19L5 20L6 20L6 21L7 21L7 22L5 22L5 23L3 23L3 24L5 24L5 25L8 25L8 27L10 27L10 28L8 28L8 33L9 33L9 32L10 32L10 31L11 31L11 32L12 32L12 33L20 33L20 32L22 32L22 33L25 33L25 32L26 32L26 33L27 33L27 32L28 32L28 31L27 31L27 30L29 30L29 33L30 33L30 32L31 32L31 33L32 33L32 32L31 32L31 31L32 31L32 30L31 30L31 31L30 31L30 29L29 29L29 28L31 28L31 29L32 29L32 26L33 26L33 24L32 24L32 26L31 26L31 25L30 25L30 26L29 26L29 24L31 24L31 23L32 23L32 22L33 22L33 21L32 21L32 20L31 20L31 19L32 19L32 18L33 18L33 17L32 17L32 16L31 16L31 15L32 15L32 14L33 14L33 13L31 13L31 15L30 15L30 16L31 16L31 19L30 19L30 17L29 17L29 16L27 16L27 15L26 15L26 16L24 16L24 15L25 15L25 14L27 14L27 13L30 13L30 12L31 12L31 11L32 11L32 10L33 10L33 9L32 9L32 8L31 8L31 9L30 9L30 8L29 8L29 9L30 9L30 10L28 10L28 11L30 11L30 12L27 12L27 13L26 13L26 10L27 10L27 9L28 9L28 8L27 8L27 9L26 9L26 8L24 8L24 9L23 9L23 6L22 6L22 7L21 7L21 6L20 6L20 7L19 7L19 6L18 6L18 8L16 8L16 7L17 7L17 6L16 6L16 5L17 5L17 4L18 4L18 5L20 5L20 4L21 4L21 5L25 5L25 3L24 3L24 2L22 2L22 0L18 0L18 1L20 1L20 2L21 2L21 3L19 3L19 4L18 4L18 3L17 3L17 4L16 4L16 3L15 3L15 2L17 2L17 0ZM23 0L23 1L24 1L24 0ZM8 1L8 2L9 2L9 1ZM14 3L14 4L15 4L15 5L16 5L16 4L15 4L15 3ZM21 3L21 4L22 4L22 3ZM9 6L9 7L10 7L10 6ZM11 6L11 7L12 7L12 9L13 9L13 10L14 10L14 11L13 11L13 12L14 12L14 13L15 13L15 14L18 14L18 13L22 13L22 14L21 14L21 15L22 15L22 14L23 14L23 15L24 15L24 14L25 14L25 11L24 11L24 10L25 10L25 9L24 9L24 10L23 10L23 9L22 9L22 8L21 8L21 9L20 9L20 8L19 8L19 9L13 9L13 8L14 8L14 6L13 6L13 7L12 7L12 6ZM15 6L15 7L16 7L16 6ZM24 6L24 7L25 7L25 6ZM10 8L10 9L11 9L11 8ZM1 9L1 10L2 10L2 11L1 11L1 12L2 12L2 13L1 13L1 14L2 14L2 13L4 13L4 11L3 11L3 9ZM19 9L19 10L18 10L18 11L19 11L19 10L20 10L20 12L22 12L22 13L23 13L23 14L24 14L24 13L23 13L23 12L24 12L24 11L23 11L23 10L22 10L22 9L21 9L21 10L20 10L20 9ZM15 10L15 11L14 11L14 12L15 12L15 13L18 13L18 12L17 12L17 11L16 11L16 10ZM30 10L30 11L31 11L31 10ZM6 11L6 12L7 12L7 13L5 13L5 14L3 14L3 15L5 15L5 16L7 16L7 17L6 17L6 18L7 18L7 19L6 19L6 20L8 20L8 22L7 22L7 23L6 23L6 24L7 24L7 23L9 23L9 24L8 24L8 25L9 25L9 26L10 26L10 27L11 27L11 29L13 29L13 30L14 30L14 31L12 31L12 30L11 30L11 31L12 31L12 32L18 32L18 31L20 31L20 30L21 30L21 29L22 29L22 30L23 30L23 31L22 31L22 32L25 32L25 31L26 31L26 30L27 30L27 29L24 29L24 28L23 28L23 29L22 29L22 28L20 28L20 30L19 30L19 29L13 29L13 28L16 28L16 27L14 27L14 25L15 25L15 26L18 26L18 27L17 27L17 28L18 28L18 27L20 27L20 26L18 26L18 25L22 25L22 27L23 27L23 26L24 26L24 25L22 25L22 24L23 24L23 23L24 23L24 24L25 24L25 23L29 23L29 21L30 21L30 23L31 23L31 20L30 20L30 19L28 19L28 18L29 18L29 17L27 17L27 16L26 16L26 17L25 17L25 18L23 18L23 20L25 20L25 18L26 18L26 17L27 17L27 19L28 19L28 20L26 20L26 21L27 21L27 22L25 22L25 21L24 21L24 22L21 22L21 23L20 23L20 22L19 22L19 21L22 21L22 20L21 20L21 19L20 19L20 18L19 18L19 17L22 17L22 16L20 16L20 14L19 14L19 15L16 15L16 16L15 16L15 17L13 17L13 18L12 18L12 17L11 17L11 15L9 15L9 20L8 20L8 16L7 16L7 15L8 15L8 12L7 12L7 11ZM5 14L5 15L7 15L7 14ZM1 15L1 17L2 17L2 15ZM16 16L16 17L19 17L19 16ZM10 17L10 19L11 19L11 17ZM14 18L14 20L13 20L13 19L12 19L12 21L14 21L14 22L11 22L11 20L10 20L10 22L9 22L9 23L10 23L10 24L9 24L9 25L10 25L10 24L11 24L11 25L12 25L12 28L13 28L13 25L14 25L14 24L12 24L12 23L16 23L16 24L15 24L15 25L18 25L18 24L20 24L20 23L19 23L19 22L18 22L18 21L19 21L19 20L20 20L20 19L19 19L19 20L16 20L16 18ZM14 20L14 21L15 21L15 22L16 22L16 23L17 23L17 24L18 24L18 22L17 22L17 21L16 21L16 20ZM28 20L28 21L29 21L29 20ZM21 23L21 24L22 24L22 23ZM25 25L25 28L28 28L28 25ZM26 26L26 27L27 27L27 26ZM30 26L30 27L31 27L31 26ZM9 29L9 31L10 31L10 29ZM23 29L23 30L24 30L24 31L25 31L25 30L24 30L24 29ZM15 30L15 31L16 31L16 30ZM17 30L17 31L18 31L18 30ZM0 0L0 7L7 7L7 0ZM1 1L1 6L6 6L6 1ZM2 2L2 5L5 5L5 2ZM26 0L26 7L33 7L33 0ZM27 1L27 6L32 6L32 1ZM28 2L28 5L31 5L31 2ZM0 26L0 33L7 33L7 26ZM1 27L1 32L6 32L6 27ZM2 28L2 31L5 31L5 28Z" fill="#000000"/></g></g></svg>
