<?xml version="1.0" encoding="UTF-8"?>
<svg xmlns="http://www.w3.org/2000/svg" version="1.1" width="300" height="300" viewBox="0 0 300 300"><rect x="0" y="0" width="300" height="300" fill="#ffffff"/><g transform="scale(9.091)"><g transform="translate(0,0)"><path fill-rule="evenodd" d="M10 0L10 2L11 2L11 0ZM12 0L12 1L13 1L13 2L12 2L12 4L14 4L14 5L11 5L11 6L10 6L10 4L11 4L11 3L8 3L8 4L9 4L9 5L8 5L8 7L9 7L9 8L6 8L6 9L5 9L5 8L0 8L0 11L1 11L1 12L0 12L0 14L2 14L2 15L0 15L0 17L1 17L1 19L0 19L0 20L1 20L1 21L0 21L0 25L1 25L1 21L2 21L2 22L3 22L3 23L2 23L2 24L5 24L5 25L8 25L8 27L9 27L9 25L10 25L10 27L11 27L11 28L10 28L10 29L9 29L9 28L8 28L8 33L10 33L10 32L12 32L12 33L20 33L20 32L22 32L22 33L25 33L25 32L26 32L26 33L27 33L27 32L28 32L28 31L27 31L27 30L29 30L29 33L30 33L30 32L31 32L31 33L32 33L32 32L31 32L31 31L32 31L32 30L31 30L31 31L30 31L30 29L29 29L29 28L31 28L31 29L32 29L32 26L33 26L33 24L32 24L32 26L31 26L31 25L30 25L30 26L29 26L29 24L31 24L31 23L32 23L32 22L33 22L33 21L32 21L32 20L31 20L31 19L32 19L32 18L33 18L33 17L32 17L32 16L31 16L31 15L32 15L32 14L33 14L33 13L31 13L31 15L30 15L30 16L31 16L31 19L30 19L30 17L29 17L29 16L27 16L27 15L26 15L26 16L24 16L24 15L25 15L25 14L27 14L27 13L30 13L30 12L31 12L31 11L32 11L32 10L33 10L33 9L32 9L32 8L31 8L31 9L30 9L30 8L29 8L29 9L30 9L30 10L28 10L28 11L30 11L30 12L27 12L27 13L26 13L26 10L27 10L27 9L28 9L28 8L27 8L27 9L26 9L26 8L24 8L24 9L23 9L23 6L22 6L22 7L21 7L21 5L25 5L25 3L24 3L24 2L22 2L22 0L18 0L18 1L20 1L20 2L21 2L21 3L22 3L22 4L19 4L19 3L17 3L17 2L16 2L16 1L15 1L15 0L14 0L14 1L13 1L13 0ZM23 0L23 1L24 1L24 0ZM8 1L8 2L9 2L9 1ZM13 2L13 3L14 3L14 4L15 4L15 5L14 5L14 6L13 6L13 7L12 7L12 6L11 6L11 7L12 7L12 9L11 9L11 8L10 8L10 9L6 9L6 10L5 10L5 9L1 9L1 11L2 11L2 13L3 13L3 15L2 15L2 16L3 16L3 17L4 17L4 19L3 19L3 18L2 18L2 19L1 19L1 20L2 20L2 21L4 21L4 23L5 23L5 22L7 22L7 23L6 23L6 24L8 24L8 23L9 23L9 24L10 24L10 25L11 25L11 27L12 27L12 28L11 28L11 29L13 29L13 28L14 28L14 29L15 29L15 30L10 30L10 31L9 31L9 32L10 32L10 31L13 31L13 32L14 32L14 31L15 31L15 30L16 30L16 31L17 31L17 32L18 32L18 31L20 31L20 30L21 30L21 29L22 29L22 30L23 30L23 31L22 31L22 32L25 32L25 31L26 31L26 30L27 30L27 29L24 29L24 28L23 28L23 29L22 29L22 28L20 28L20 30L18 30L18 29L19 29L19 27L20 27L20 26L19 26L19 25L22 25L22 27L23 27L23 26L24 26L24 25L22 25L22 24L23 24L23 23L24 23L24 24L25 24L25 23L29 23L29 21L30 21L30 23L31 23L31 20L30 20L30 19L28 19L28 18L29 18L29 17L27 17L27 16L26 16L26 17L25 17L25 18L23 18L23 20L25 20L25 18L26 18L26 17L27 17L27 19L28 19L28 20L26 20L26 21L27 21L27 22L25 22L25 21L24 21L24 22L21 22L21 23L22 23L22 24L20 24L20 22L18 22L18 21L22 21L22 20L21 20L21 19L20 19L20 18L18 18L18 17L22 17L22 16L21 16L21 15L22 15L22 14L23 14L23 15L24 15L24 14L25 14L25 11L24 11L24 10L25 10L25 9L24 9L24 10L23 10L23 9L22 9L22 8L21 8L21 9L20 9L20 5L19 5L19 4L15 4L15 3L16 3L16 2L15 2L15 3L14 3L14 2ZM15 5L15 6L14 6L14 8L13 8L13 9L12 9L12 10L13 10L13 9L14 9L14 10L15 10L15 11L16 11L16 12L13 12L13 11L12 11L12 13L16 13L16 14L15 14L15 15L18 15L18 16L17 16L17 17L16 17L16 16L15 16L15 17L14 17L14 16L13 16L13 17L12 17L12 15L14 15L14 14L11 14L11 17L12 17L12 18L13 18L13 19L12 19L12 21L14 21L14 24L12 24L12 23L13 23L13 22L11 22L11 25L12 25L12 26L13 26L13 25L14 25L14 26L15 26L15 28L16 28L16 29L18 29L18 28L16 28L16 26L17 26L17 25L19 25L19 23L18 23L18 24L17 24L17 23L16 23L16 22L15 22L15 21L18 21L18 20L15 20L15 21L14 21L14 20L13 20L13 19L16 19L16 18L17 18L17 17L18 17L18 16L20 16L20 15L21 15L21 14L22 14L22 13L23 13L23 14L24 14L24 13L23 13L23 12L24 12L24 11L23 11L23 10L22 10L22 9L21 9L21 10L20 10L20 9L19 9L19 8L17 8L17 6L16 6L16 5ZM9 6L9 7L10 7L10 6ZM15 6L15 7L16 7L16 6ZM18 6L18 7L19 7L19 6ZM24 6L24 7L25 7L25 6ZM14 8L14 9L15 9L15 10L16 10L16 11L17 11L17 12L16 12L16 13L17 13L17 14L18 14L18 15L20 15L20 14L21 14L21 13L22 13L22 12L21 12L21 11L20 11L20 10L19 10L19 9L17 9L17 8L16 8L16 9L15 9L15 8ZM10 9L10 11L11 11L11 9ZM16 9L16 10L17 10L17 11L18 11L18 12L17 12L17 13L19 13L19 14L20 14L20 13L21 13L21 12L20 12L20 11L18 11L18 10L17 10L17 9ZM3 10L3 11L4 11L4 12L3 12L3 13L5 13L5 16L6 16L6 17L5 17L5 18L6 18L6 19L5 19L5 20L6 20L6 21L7 21L7 20L6 20L6 19L7 19L7 18L9 18L9 17L7 17L7 16L8 16L8 15L10 15L10 14L8 14L8 13L11 13L11 12L9 12L9 11L8 11L8 10L6 10L6 11L7 11L7 12L5 12L5 11L4 11L4 10ZM30 10L30 11L31 11L31 10ZM19 12L19 13L20 13L20 12ZM6 13L6 14L7 14L7 15L6 15L6 16L7 16L7 15L8 15L8 14L7 14L7 13ZM3 15L3 16L4 16L4 15ZM6 17L6 18L7 18L7 17ZM13 17L13 18L14 18L14 17ZM15 17L15 18L16 18L16 17ZM2 19L2 20L3 20L3 19ZM9 19L9 21L8 21L8 22L9 22L9 23L10 23L10 20L11 20L11 19ZM19 19L19 20L20 20L20 19ZM28 20L28 21L29 21L29 20ZM15 23L15 24L14 24L14 25L15 25L15 26L16 26L16 25L17 25L17 24L16 24L16 23ZM15 24L15 25L16 25L16 24ZM25 25L25 28L28 28L28 25ZM18 26L18 27L19 27L19 26ZM26 26L26 27L27 27L27 26ZM30 26L30 27L31 27L31 26ZM23 29L23 30L24 30L24 31L25 31L25 30L24 30L24 29ZM17 30L17 31L18 31L18 30ZM0 0L0 7L7 7L7 0ZM1 1L1 6L6 6L6 1ZM2 2L2 5L5 5L5 2ZM26 0L26 7L33 7L33 0ZM27 1L27 6L32 6L32 1ZM28 2L28 5L31 5L31 2ZM0 26L0 33L7 33L7 26ZM1 27L1 32L6 32L6 27ZM2 28L2 31L5 31L5 28Z" fill="#000000"/></g></g></svg>
