<?xml version="1.0" encoding="UTF-8"?>
<svg xmlns="http://www.w3.org/2000/svg" version="1.1" width="300" height="300" viewBox="0 0 300 300"><rect x="0" y="0" width="300" height="300" fill="#ffffff"/><g transform="scale(9.091)"><g transform="translate(0,0)"><path fill-rule="evenodd" d="M10 0L10 2L11 2L11 0ZM12 0L12 1L13 1L13 2L12 2L12 4L14 4L14 8L13 8L13 9L12 9L12 7L13 7L13 5L11 5L11 6L10 6L10 4L11 4L11 3L8 3L8 4L9 4L9 5L8 5L8 7L9 7L9 8L6 8L6 9L5 9L5 8L0 8L0 9L2 9L2 10L1 10L1 11L2 11L2 13L3 13L3 12L4 12L4 13L5 13L5 12L4 12L4 10L3 10L3 9L5 9L5 10L6 10L6 11L7 11L7 12L6 12L6 13L8 13L8 14L10 14L10 13L11 13L11 12L9 12L9 11L7 11L7 10L8 10L8 9L10 9L10 11L11 11L11 9L12 9L12 10L13 10L13 11L12 11L12 13L14 13L14 14L11 14L11 16L9 16L9 15L8 15L8 16L5 16L5 15L7 15L7 14L5 14L5 15L4 15L4 14L3 14L3 15L2 15L2 14L0 14L0 15L2 15L2 16L3 16L3 15L4 15L4 16L5 16L5 18L4 18L4 17L3 17L3 19L2 19L2 23L4 23L4 24L3 24L3 25L4 25L4 24L5 24L5 25L8 25L8 27L10 27L10 28L8 28L8 33L11 33L11 30L12 30L12 31L13 31L13 30L15 30L15 31L14 31L14 32L13 32L13 33L14 33L14 32L15 32L15 33L20 33L20 32L22 32L22 33L25 33L25 32L26 32L26 33L27 33L27 32L28 32L28 31L27 31L27 30L29 30L29 33L30 33L30 32L31 32L31 33L32 33L32 32L31 32L31 31L32 31L32 30L31 30L31 31L30 31L30 29L29 29L29 28L31 28L31 29L32 29L32 26L33 26L33 24L32 24L32 26L31 26L31 25L30 25L30 26L29 26L29 24L31 24L31 23L32 23L32 22L33 22L33 21L32 21L32 20L31 20L31 19L32 19L32 18L33 18L33 17L32 17L32 16L31 16L31 15L32 15L32 14L33 14L33 13L31 13L31 15L30 15L30 16L31 16L31 19L30 19L30 17L29 17L29 16L27 16L27 15L26 15L26 16L24 16L24 15L25 15L25 14L27 14L27 13L30 13L30 12L31 12L31 11L32 11L32 10L33 10L33 9L32 9L32 8L31 8L31 9L30 9L30 8L29 8L29 9L30 9L30 10L28 10L28 11L30 11L30 12L27 12L27 13L26 13L26 10L27 10L27 9L28 9L28 8L27 8L27 9L26 9L26 8L24 8L24 9L23 9L23 6L22 6L22 7L21 7L21 6L20 6L20 7L21 7L21 8L17 8L17 6L16 6L16 5L15 5L15 4L17 4L17 5L18 5L18 7L19 7L19 5L25 5L25 3L24 3L24 2L22 2L22 0L21 0L21 3L22 3L22 4L19 4L19 3L20 3L20 2L19 2L19 3L16 3L16 1L15 1L15 0L14 0L14 1L13 1L13 0ZM19 0L19 1L20 1L20 0ZM23 0L23 1L24 1L24 0ZM8 1L8 2L9 2L9 1ZM17 1L17 2L18 2L18 1ZM13 2L13 3L14 3L14 4L15 4L15 3L14 3L14 2ZM18 4L18 5L19 5L19 4ZM9 6L9 7L10 7L10 6ZM11 6L11 7L12 7L12 6ZM15 6L15 7L16 7L16 6ZM24 6L24 7L25 7L25 6ZM10 8L10 9L11 9L11 8ZM14 8L14 9L13 9L13 10L14 10L14 11L13 11L13 12L14 12L14 13L15 13L15 14L14 14L14 15L12 15L12 17L11 17L11 19L10 19L10 23L9 23L9 22L8 22L8 21L9 21L9 19L8 19L8 18L7 18L7 17L6 17L6 18L7 18L7 19L6 19L6 20L5 20L5 19L3 19L3 22L4 22L4 23L6 23L6 24L7 24L7 23L6 23L6 22L8 22L8 24L10 24L10 25L9 25L9 26L10 26L10 25L11 25L11 27L12 27L12 28L11 28L11 29L9 29L9 30L11 30L11 29L13 29L13 28L14 28L14 29L15 29L15 30L16 30L16 31L15 31L15 32L19 32L19 31L20 31L20 30L21 30L21 29L22 29L22 30L23 30L23 31L22 31L22 32L25 32L25 31L26 31L26 30L27 30L27 29L24 29L24 28L23 28L23 29L22 29L22 28L20 28L20 30L19 30L19 31L18 31L18 29L19 29L19 28L18 28L18 26L19 26L19 27L20 27L20 26L19 26L19 25L22 25L22 27L23 27L23 26L24 26L24 25L22 25L22 24L23 24L23 23L24 23L24 24L25 24L25 23L29 23L29 21L30 21L30 23L31 23L31 20L30 20L30 19L28 19L28 18L29 18L29 17L27 17L27 16L26 16L26 17L25 17L25 18L23 18L23 20L25 20L25 18L26 18L26 17L27 17L27 19L28 19L28 20L26 20L26 21L27 21L27 22L25 22L25 21L24 21L24 22L19 22L19 21L22 21L22 20L20 20L20 18L21 18L21 17L22 17L22 16L21 16L21 15L22 15L22 14L23 14L23 15L24 15L24 14L25 14L25 11L24 11L24 10L25 10L25 9L24 9L24 10L23 10L23 9L22 9L22 8L21 8L21 9L20 9L20 10L19 10L19 9L17 9L17 8L16 8L16 9L15 9L15 8ZM6 9L6 10L7 10L7 9ZM14 9L14 10L15 10L15 11L14 11L14 12L15 12L15 13L18 13L18 14L17 14L17 15L18 15L18 16L16 16L16 14L15 14L15 15L14 15L14 16L13 16L13 17L12 17L12 18L13 18L13 19L12 19L12 21L14 21L14 22L11 22L11 25L12 25L12 26L13 26L13 25L16 25L16 26L14 26L14 28L15 28L15 29L18 29L18 28L17 28L17 27L16 27L16 26L17 26L17 25L19 25L19 24L22 24L22 23L19 23L19 24L17 24L17 25L16 25L16 24L15 24L15 23L17 23L17 21L19 21L19 20L17 20L17 21L16 21L16 20L15 20L15 19L19 19L19 18L20 18L20 17L21 17L21 16L20 16L20 15L18 15L18 14L20 14L20 13L21 13L21 14L22 14L22 13L23 13L23 14L24 14L24 13L23 13L23 12L24 12L24 11L23 11L23 10L22 10L22 9L21 9L21 12L20 12L20 11L19 11L19 10L17 10L17 9L16 9L16 10L15 10L15 9ZM16 10L16 11L15 11L15 12L18 12L18 13L20 13L20 12L18 12L18 11L17 11L17 10ZM30 10L30 11L31 11L31 10ZM8 12L8 13L9 13L9 12ZM21 12L21 13L22 13L22 12ZM0 16L0 17L1 17L1 16ZM14 16L14 17L13 17L13 18L14 18L14 19L13 19L13 20L14 20L14 21L15 21L15 22L14 22L14 23L12 23L12 24L14 24L14 23L15 23L15 22L16 22L16 21L15 21L15 20L14 20L14 19L15 19L15 18L19 18L19 17L20 17L20 16L19 16L19 17L15 17L15 16ZM9 17L9 18L10 18L10 17ZM14 17L14 18L15 18L15 17ZM0 19L0 25L1 25L1 19ZM4 20L4 22L5 22L5 20ZM6 20L6 21L7 21L7 20ZM28 20L28 21L29 21L29 20ZM25 25L25 28L28 28L28 25ZM26 26L26 27L27 27L27 26ZM30 26L30 27L31 27L31 26ZM23 29L23 30L24 30L24 31L25 31L25 30L24 30L24 29ZM9 31L9 32L10 32L10 31ZM0 0L0 7L7 7L7 0ZM1 1L1 6L6 6L6 1ZM2 2L2 5L5 5L5 2ZM26 0L26 7L33 7L33 0ZM27 1L27 6L32 6L32 1ZM28 2L28 5L31 5L31 2ZM0 26L0 33L7 33L7 26ZM1 27L1 32L6 32L6 27ZM2 28L2 31L5 31L5 28Z" fill="#000000"/></g></g></svg>
