<?xml version="1.0" encoding="UTF-8"?>
<svg xmlns="http://www.w3.org/2000/svg" version="1.1" width="100" height="100" viewBox="0 0 100 100"><rect x="0" y="0" width="100" height="100" fill="#ffffff"/><g transform="scale(4)"><g transform="translate(0,0)"><path fill-rule="evenodd" d="M10 0L10 1L8 1L8 3L9 3L9 4L8 4L8 8L6 8L6 9L7 9L7 10L5 10L5 9L4 9L4 8L3 8L3 9L2 9L2 8L0 8L0 10L1 10L1 9L2 9L2 12L1 12L1 14L0 14L0 15L1 15L1 16L0 16L0 17L2 17L2 15L1 15L1 14L2 14L2 12L3 12L3 9L4 9L4 11L5 11L5 12L4 12L4 13L7 13L7 14L5 14L5 15L7 15L7 16L6 16L6 17L8 17L8 19L9 19L9 17L8 17L8 16L10 16L10 18L11 18L11 19L10 19L10 21L8 21L8 22L10 22L10 23L8 23L8 25L9 25L9 24L10 24L10 25L11 25L11 22L12 22L12 21L11 21L11 19L12 19L12 20L13 20L13 18L14 18L14 20L15 20L15 19L16 19L16 21L19 21L19 22L20 22L20 25L21 25L21 23L22 23L22 21L21 21L21 19L22 19L22 20L23 20L23 21L25 21L25 16L24 16L24 18L22 18L22 17L23 17L23 16L22 16L22 17L21 17L21 16L20 16L20 13L19 13L19 12L21 12L21 11L22 11L22 9L23 9L23 12L24 12L24 13L21 13L21 15L23 15L23 14L24 14L24 15L25 15L25 12L24 12L24 11L25 11L25 9L24 9L24 8L22 8L22 9L21 9L21 8L18 8L18 9L17 9L17 4L16 4L16 3L17 3L17 2L16 2L16 0L14 0L14 1L15 1L15 2L14 2L14 3L12 3L12 7L11 7L11 4L10 4L10 3L9 3L9 2L11 2L11 0ZM15 2L15 3L14 3L14 4L13 4L13 7L12 7L12 8L13 8L13 9L14 9L14 10L15 10L15 11L14 11L14 12L12 12L12 16L11 16L11 15L10 15L10 14L11 14L11 13L10 13L10 12L8 12L8 11L6 11L6 12L7 12L7 13L9 13L9 14L7 14L7 15L10 15L10 16L11 16L11 18L12 18L12 16L14 16L14 17L16 17L16 16L19 16L19 15L17 15L17 13L16 13L16 12L17 12L17 11L18 11L18 12L19 12L19 11L20 11L20 10L21 10L21 9L19 9L19 11L18 11L18 10L17 10L17 11L16 11L16 8L15 8L15 7L16 7L16 6L15 6L15 5L14 5L14 4L15 4L15 3L16 3L16 2ZM9 5L9 8L8 8L8 9L10 9L10 10L9 10L9 11L11 11L11 8L10 8L10 5ZM14 6L14 7L13 7L13 8L14 8L14 9L15 9L15 8L14 8L14 7L15 7L15 6ZM15 11L15 12L14 12L14 13L13 13L13 15L15 15L15 16L16 16L16 15L15 15L15 12L16 12L16 11ZM3 14L3 16L4 16L4 17L5 17L5 16L4 16L4 14ZM17 17L17 20L20 20L20 17ZM18 18L18 19L19 19L19 18ZM14 21L14 22L15 22L15 21ZM24 22L24 23L25 23L25 22ZM14 23L14 24L15 24L15 25L19 25L19 24L17 24L17 23ZM12 24L12 25L13 25L13 24ZM23 24L23 25L25 25L25 24ZM0 0L0 7L7 7L7 0ZM1 1L1 6L6 6L6 1ZM2 2L2 5L5 5L5 2ZM18 0L18 7L25 7L25 0ZM19 1L19 6L24 6L24 1ZM20 2L20 5L23 5L23 2ZM0 18L0 25L7 25L7 18ZM1 19L1 24L6 24L6 19ZM2 20L2 23L5 23L5 20Z" fill="#000000"/></g></g></svg>
